<?xml version="1.0" encoding="utf-8"?>
<!-- Generator: Adobe Illustrator 22.0.1, SVG Export Plug-In . SVG Version: 6.00 Build 0)  -->
<svg version="1.1" id="レイヤー_1" xmlns="http://www.w3.org/2000/svg" xmlns:xlink="http://www.w3.org/1999/xlink" x="0px"
	 y="0px" viewBox="0 0 584.6 232.3" style="enable-background:new 0 0 584.6 232.3;" xml:space="preserve">
<style type="text/css">
	.st0{fill:#FAFAFA;}
	.st1{fill:#F47A00;}
</style>
<path class="st0" d="M450.2,60.7c-4.8,4.2-11.5,6.3-20.1,6.3c-8.7,0-15.4-2.1-20.1-6.3c-4.8-4.2-7.1-10.6-7.1-19.4V1.5h14.1v39.8
	c0,1.7,0.1,3.4,0.4,5.1c0.3,1.7,0.9,3.2,1.9,4.4c1,1.3,2.3,2.3,4,3.1c1.7,0.8,4,1.2,6.9,1.2c5,0,8.5-1.1,10.4-3.4
	c1.9-2.2,2.9-5.8,2.9-10.5V1.5h14.1v39.8C457.5,50,455,56.5,450.2,60.7z"/>
<path class="st0" d="M517.5,1.5v11.8h-33.8v13.7h31V38h-31v15.7h34.5v11.8h-48.6V1.5H517.5z"/>
<path class="st0" d="M568.8,18.6c-0.8-1.3-1.9-2.5-3.1-3.5c-1.3-1-2.7-1.8-4.3-2.4c-1.6-0.6-3.2-0.9-5-0.9c-3.2,0-5.9,0.6-8.1,1.8
	c-2.2,1.2-4,2.9-5.4,4.9c-1.4,2.1-2.4,4.4-3,7c-0.6,2.6-0.9,5.4-0.9,8.2c0,2.7,0.3,5.3,0.9,7.8c0.6,2.5,1.6,4.8,3,6.9
	c1.4,2,3.2,3.7,5.4,4.9c2.2,1.2,4.9,1.8,8.1,1.8c4.3,0,7.7-1.3,10.1-3.9c2.4-2.6,3.9-6.1,4.4-10.4h13.6c-0.4,4-1.3,7.6-2.8,10.9
	s-3.5,6-5.9,8.3c-2.5,2.3-5.3,4-8.6,5.2c-3.3,1.2-6.9,1.8-10.9,1.8c-4.9,0-9.3-0.9-13.2-2.6c-3.9-1.7-7.2-4.1-9.9-7
	c-2.7-3-4.8-6.5-6.2-10.5c-1.4-4-2.2-8.4-2.2-13.1c0-4.8,0.7-9.2,2.2-13.3c1.4-4.1,3.5-7.7,6.2-10.7c2.7-3.1,6-5.4,9.9-7.2
	c3.9-1.7,8.3-2.6,13.2-2.6c3.5,0,6.9,0.5,10,1.5c3.1,1,5.9,2.5,8.4,4.4c2.5,1.9,4.5,4.4,6.1,7.2c1.6,2.9,2.6,6.2,3.1,9.9h-13.6
	C570.2,21.4,569.6,20,568.8,18.6z"/>
<path class="st1" d="M199.8,74.7l-11.2,75.1h-19.2l11.1-75.1H199.8z"/>
<path class="st1" d="M264.5,110.5c0,1.1-0.2,3.1-0.5,6.1l-4.9,33.3h-17.9l5-34.4c0.1-0.4,0.1-1.1,0.1-1.9c0-3.5-1.5-5.2-4.6-5.2
	c-1.9,0-3.7,0.6-5.5,1.8c-1.8,1.2-4.3,3.3-7.4,6.3l-4.9,33.4h-18.1l8.2-55.2h18l-0.9,6.5c3.3-2.4,6.2-4.2,8.8-5.5
	c2.5-1.3,5.6-1.9,9.4-1.9c5.6,0,9.6,1.7,11.9,5.2C263.4,102.4,264.5,106.3,264.5,110.5z"/>
<path class="st1" d="M313.7,94.7l-2.9,13.6h-10.7l-3.6,18c-0.3,1.5-0.4,2.7-0.4,3.6c0,3.1,1.4,4.6,4.1,4.6c2.9,0,6.5-1.6,10.7-4.7
	l-1,16.7c-5,2.9-10.2,4.4-15.6,4.4c-2.4,0-4.7-0.4-7-1.3c-2.3-0.8-4.4-2.4-6.2-4.7c-2.2-2.6-3.4-6.1-3.4-10.4c0-1.9,0.2-3.9,0.6-6
	l3.7-20.2h-10.2l2.4-13.6h10.3l2.1-11h18.2l-2.1,11H313.7z"/>
<path class="st1" d="M372.3,118.9c0,2.6-0.3,5.3-0.8,8.1h-34.9c0,7.6,3.7,11.4,11.2,11.4c3.7,0,7.1-0.4,10-1.3
	c2.9-0.9,6.5-2.1,10.5-3.8l-2.8,13.6c-3.9,1.6-7,2.6-9.3,3.1c-2.3,0.5-5.3,0.8-8.8,0.8c-7.5,0-13.4-1.4-17.7-4.2
	c-4.3-2.8-7.2-6.1-8.8-10c-1.6-3.9-2.3-7.7-2.3-11.5c0-5.7,1.3-10.9,3.9-15.7c2.6-4.8,6.2-8.7,10.7-11.5s9.7-4.3,15.5-4.3
	c4.3,0,8.2,0.9,11.8,2.8c3.6,1.8,6.4,4.7,8.5,8.5C371.3,108.7,372.3,113.4,372.3,118.9z M354.9,117.2c0-0.3,0-0.5,0-0.7
	c0-0.2,0-0.6,0-1.1c0-6.2-2.1-9.3-6.4-9.3c-2.6,0-4.7,1-6.2,3.1c-1.5,2-2.9,4.7-4.2,8H354.9z"/>
<path class="st1" d="M437,94.7l-1.7,12.3h-7.8c1,2.8,1.5,5.4,1.5,7.8c0,3.8-0.9,7.1-2.7,10c-1.8,2.9-4.5,5.2-8.2,6.8
	c-3.6,1.6-8,2.4-13.3,2.4h-3.2c-1.8,0-3.2,0.3-4.2,0.9c-1,0.6-1.5,1.4-1.5,2.5c0,0.9,0.3,1.6,0.8,2s1.7,0.9,3.6,1.4
	c1.9,0.5,5.1,1.1,9.6,1.9c12.9,2.4,19.3,7.8,19.3,16.1c0,2.7-0.7,5.3-2,7.8c-1.3,2.5-4.1,4.7-8.2,6.5c-4.2,1.8-10.1,2.7-17.7,2.7
	c-4.2,0-8-0.2-11.3-0.6c-3.3-0.4-6.2-1.1-8.7-2.1c-2.5-1-4.4-2.4-5.7-4.3c-1.4-1.8-2-4.2-2-7c0-5.4,4.1-9.5,12.3-12.2
	c-2-1.2-3.7-2.4-4.9-3.7c-1.2-1.3-1.9-3.2-1.9-5.6c0-5.2,4-8.4,11.9-9.5c-3.3-1.4-5.8-3.7-7.7-7c-1.8-3.3-2.7-6.5-2.7-9.8
	c0-2.1,0.4-4.3,1.2-6.5c0.8-2.3,2.1-4.4,4-6.4c1.9-2,4.3-3.6,7.4-4.8c3.1-1.2,6.8-1.8,11.1-1.8H437z M412.3,161.4
	c0-1.7-0.8-2.9-2.5-3.5c-1.6-0.6-5.1-1.3-10.2-1.9l-3.4-0.5c-2.6,1-4.4,1.9-5.3,2.6c-0.9,0.7-1.4,1.6-1.4,2.7c0,1.6,1,2.8,2.9,3.6
	c1.9,0.7,5,1.1,9.2,1.1c4.1,0,6.9-0.4,8.4-1.1C411.5,163.7,412.3,162.7,412.3,161.4z M412.1,112.7c0-2.4-0.6-4.3-1.7-5.6
	c-1.2-1.3-2.8-2-4.8-2c-3.1,0-5.2,1.3-6.4,3.8c-1.2,2.5-1.8,4.9-1.8,7.1c0,2.4,0.7,4.3,2,5.7c1.3,1.4,2.9,2,4.7,2
	c2.9,0,5-1.2,6.3-3.5C411.4,117.8,412.1,115.3,412.1,112.7z"/>
<path class="st1" d="M489.8,99.4l-8.5,17.5c-1-1.7-2.1-3.1-3.3-4.3c-1.2-1.2-2.7-1.8-4.6-1.8c-3.5,0-6.8,2.5-9.8,7.6l-4.7,31.5
	h-17.9l8.2-55.2h17.9l-1.1,7.9c5-5.9,9.4-8.9,13.2-8.9c2,0,3.8,0.5,5.4,1.5C486.4,96.2,488,97.6,489.8,99.4z"/>
<path class="st1" d="M547,95.5l-8.3,54.4h-17.9l0.9-5c-2.1,1.8-4.1,3.3-6.1,4.4c-2,1.1-4.5,1.6-7.6,1.6c-3.9,0-7.4-1.1-10.4-3.3
	c-3-2.2-5.3-5.1-6.9-8.8c-1.6-3.6-2.4-7.6-2.4-11.9c0-3.6,0.6-7.2,1.8-11c1.2-3.7,3.3-7.3,6.3-10.7c3-3.4,7.3-6.2,12.8-8.3
	c5.5-2.1,12.3-3.2,20.3-3.2c3.4,0,6.2,0.1,8.3,0.4C539.8,94.4,542.9,94.8,547,95.5z M527.5,107h-3.4c-3.3,0-6.2,0.9-8.9,2.8
	c-2.7,1.8-4.8,4.3-6.3,7.5c-1.5,3.1-2.3,6.5-2.3,10.2c0,2.5,0.6,4.6,1.9,6.4c1.3,1.8,3.1,2.6,5.4,2.6c1.2,0,2.5-0.3,3.9-0.9
	c1.5-0.6,3.3-1.6,5.6-3.1L527.5,107z"/>
<path class="st1" d="M584.1,74.7l-11.1,75.1h-18.3l11.1-75.1H584.1z"/>
<path class="st1" d="M46.1,170.9L44,183.7c-0.6-0.5-1.7-1.1-3.2-1.9c-1.5-0.8-3.3-1.5-5.3-2.2c-2-0.6-4-1-6-1
	c-2.1,0-3.7,0.6-4.9,1.7c-1.1,1.1-1.7,2.5-1.7,4c0,1.3,0.4,2.5,1.2,3.6c0.8,1.1,2.8,2.9,6,5.5c4.8,3.8,8,7.1,9.8,9.9
	c1.8,2.8,2.7,6,2.7,9.6c0,2.9-0.7,5.9-2,8.8c-1.4,2.9-3.7,5.4-7,7.4c-3.3,2-7.7,3-13.1,3c-4.1,0-7.9-0.6-11.6-1.7
	c-3.6-1.1-6.6-2.4-9-3.9l2-13c6.6,4.2,12.1,6.3,16.2,6.3c2.6,0,4.5-0.7,5.6-2.2c1.1-1.5,1.6-3,1.6-4.7c0-1.9-0.6-3.5-1.8-4.9
	s-4-4.1-8.5-8.2c-2.7-2.4-4.7-4.6-6.1-6.4c-1.4-1.9-2.3-3.5-2.7-4.9c-0.4-1.4-0.6-3-0.6-4.8c0-2.1,0.4-4.1,1.2-6.2
	c0.8-2.1,2.1-3.9,3.8-5.7c1.7-1.7,3.9-3.1,6.6-4.1s5.8-1.5,9.4-1.5C33.3,166.3,39.7,167.8,46.1,170.9z"/>
<path class="st0" d="M84.5,184.2l-2.5,11.6h-9.1l-3.1,15.4c-0.2,1.3-0.4,2.3-0.4,3.1c0,2.6,1.2,3.9,3.5,3.9c2.5,0,5.6-1.3,9.1-4
	l-0.9,14.3c-4.2,2.5-8.7,3.8-13.4,3.8c-2,0-4-0.4-6-1.1c-1.9-0.7-3.7-2.1-5.3-4c-1.9-2.3-2.9-5.2-2.9-8.9c0-1.6,0.2-3.4,0.5-5.1
	l3.2-17.3h-8.7l2.1-11.6h8.8l1.8-9.4h15.6l-1.8,9.4H84.5z"/>
<path class="st0" d="M129.9,188.2l-7.3,14.9c-0.8-1.5-1.8-2.7-2.8-3.7s-2.3-1.5-3.9-1.5c-3,0-5.8,2.2-8.3,6.5l-4,27H88.3l7.1-47.2
	h15.3l-1,6.8c4.2-5.1,8-7.6,11.3-7.6c1.7,0,3.3,0.4,4.6,1.3C127,185.5,128.4,186.7,129.9,188.2z"/>
<path class="st0" d="M174.6,205c0,2.2-0.2,4.5-0.6,6.9h-29.9c0,6.5,3.2,9.8,9.6,9.8c3.2,0,6-0.4,8.6-1.1c2.5-0.7,5.5-1.8,9-3.2
	l-2.4,11.6c-3.3,1.3-6,2.2-8,2.7c-2,0.5-4.5,0.7-7.5,0.7c-6.4,0-11.5-1.2-15.2-3.6c-3.7-2.4-6.2-5.2-7.5-8.5c-1.3-3.3-2-6.6-2-9.8
	c0-4.9,1.1-9.3,3.3-13.5c2.2-4.1,5.3-7.4,9.2-9.8s8.3-3.6,13.2-3.6c3.7,0,7,0.8,10.1,2.4c3,1.6,5.5,4,7.3,7.2
	C173.7,196.2,174.6,200.2,174.6,205z M159.7,203.5c0-0.2,0-0.4,0-0.6s0-0.5,0-0.9c0-5.3-1.8-8-5.5-8c-2.2,0-4,0.9-5.3,2.6
	c-1.3,1.7-2.5,4-3.6,6.9H159.7z"/>
<path class="st0" d="M227,205c0,2.2-0.2,4.5-0.6,6.9h-29.9c0,6.5,3.2,9.8,9.6,9.8c3.2,0,6-0.4,8.6-1.1c2.5-0.7,5.5-1.8,9-3.2
	l-2.4,11.6c-3.3,1.3-6,2.2-8,2.7c-2,0.5-4.5,0.7-7.5,0.7c-6.4,0-11.5-1.2-15.2-3.6c-3.7-2.4-6.2-5.2-7.5-8.5c-1.3-3.3-2-6.6-2-9.8
	c0-4.9,1.1-9.3,3.3-13.5c2.2-4.1,5.3-7.4,9.2-9.8s8.3-3.6,13.2-3.6c3.7,0,7,0.8,10.1,2.4c3,1.6,5.5,4,7.3,7.2
	C226.1,196.2,227,200.2,227,205z M212.1,203.5c0-0.2,0-0.4,0-0.6s0-0.5,0-0.9c0-5.3-1.8-8-5.5-8c-2.2,0-4,0.9-5.3,2.6
	c-1.3,1.7-2.5,4-3.6,6.9H212.1z"/>
<path class="st0" d="M268,184.2l-2.5,11.6h-9.1l-3.1,15.4c-0.2,1.3-0.4,2.3-0.4,3.1c0,2.6,1.2,3.9,3.5,3.9c2.5,0,5.5-1.3,9.1-4
	l-0.9,14.3c-4.2,2.5-8.7,3.8-13.4,3.8c-2,0-4-0.4-6-1.1c-1.9-0.7-3.7-2.1-5.3-4c-1.9-2.3-2.9-5.2-2.9-8.9c0-1.6,0.2-3.4,0.5-5.1
	l3.2-17.3h-8.7l2.1-11.6h8.8l1.8-9.4h15.6l-1.8,9.4H268z"/>
<path class="st1" d="M367.3,198.7c0,7.1-1.4,13.1-4.1,18c-2.7,4.9-6.8,8.5-12.1,11c-5.4,2.5-12,3.8-19.9,3.8h-29.6l9.2-64.3h23.7
	c5.6,0,10.5,0.8,14.7,2.5s7.6,4,10.3,6.9c2.7,2.9,4.7,6.3,6,10C366.7,190.4,367.3,194.4,367.3,198.7z M350.6,198.9
	c0-3.2-0.6-6.3-1.8-9.4c-1.2-3-3.5-5.6-6.7-7.7c-3.3-2.1-7.8-3.2-13.6-3.2h-2.6l-6,41.3h8.6c4.1,0,7.6-0.6,10.6-1.9
	c3-1.2,5.3-2.9,7-4.9c1.7-2.1,2.9-4.3,3.6-6.7C350.2,204,350.6,201.5,350.6,198.9z"/>
<path class="st0" d="M424,184.9l-7.1,46.6h-15.4l0.7-4.3c-1.8,1.6-3.5,2.8-5.2,3.7c-1.7,0.9-3.8,1.4-6.5,1.4c-3.3,0-6.3-0.9-8.9-2.8
	c-2.6-1.9-4.5-4.4-5.9-7.5c-1.4-3.1-2.1-6.5-2.1-10.2c0-3.1,0.5-6.2,1.5-9.4c1-3.2,2.8-6.3,5.4-9.2c2.6-2.9,6.2-5.3,10.9-7.1
	c4.7-1.8,10.5-2.7,17.4-2.7c2.9,0,5.3,0.1,7.1,0.3C417.9,183.9,420.6,184.3,424,184.9z M407.3,194.8h-2.9c-2.8,0-5.3,0.8-7.6,2.4
	c-2.3,1.6-4.1,3.7-5.4,6.4s-1.9,5.6-1.9,8.7c0,2.1,0.5,4,1.6,5.5c1.1,1.5,2.6,2.2,4.6,2.2c1,0,2.1-0.3,3.4-0.8
	c1.3-0.5,2.9-1.4,4.8-2.7L407.3,194.8z"/>
<path class="st0" d="M480,197.7c0,0.9-0.2,2.7-0.5,5.2l-4.2,28.5h-15.4l4.3-29.5c0.1-0.4,0.1-0.9,0.1-1.6c0-3-1.3-4.5-3.9-4.5
	c-1.6,0-3.2,0.5-4.7,1.6c-1.5,1.1-3.6,2.8-6.3,5.4l-4.2,28.6h-15.5l7.1-47.2h15.4l-0.8,5.5c2.8-2,5.3-3.6,7.5-4.7
	c2.1-1.1,4.8-1.6,8-1.6c4.8,0,8.2,1.5,10.2,4.5S480,194.1,480,197.7z"/>
<path class="st0" d="M532,185.1l-2.1,14.6c-3-1-4.9-1.6-5.7-1.7c-1.8-0.4-3.6-0.6-5.5-0.6c-3.6,0-6.5,0.7-8.7,2
	c-2.3,1.4-3.9,3-4.9,5c-1,2-1.5,3.7-1.5,5.3c0,2.1,0.7,4.1,2.1,6c1.4,1.9,4.3,2.9,8.6,2.9c2.2,0,4.4-0.3,6.5-0.9
	c2.2-0.6,5.1-1.8,8.7-3.5l-2.5,15.9c-1.9,0.6-3.5,1.1-4.7,1.3c-1.2,0.3-2.5,0.5-3.9,0.6c-1.4,0.1-2.9,0.2-4.3,0.2
	c-10.1,0-17.1-2.4-20.8-7.3c-3.7-4.9-5.5-10-5.5-15.5c0-3.5,0.9-7.2,2.7-11.2c1.8-4,4.9-7.5,9.4-10.5c4.5-3,10.6-4.5,18.2-4.5
	C522.4,183.4,527.1,184,532,185.1z"/>
<path class="st0" d="M581.5,205c0,2.2-0.2,4.5-0.7,6.9H551c0,6.5,3.2,9.8,9.6,9.8c3.2,0,6-0.4,8.6-1.1c2.5-0.7,5.5-1.8,9-3.2
	l-2.4,11.6c-3.3,1.3-6,2.2-8,2.7c-2,0.5-4.5,0.7-7.5,0.7c-6.4,0-11.5-1.2-15.2-3.6c-3.7-2.4-6.2-5.2-7.5-8.5c-1.3-3.3-2-6.6-2-9.8
	c0-4.9,1.1-9.3,3.3-13.5c2.2-4.1,5.3-7.4,9.2-9.8s8.3-3.6,13.2-3.6c3.7,0,7,0.8,10.1,2.4c3,1.6,5.5,4,7.3,7.2
	C580.6,196.2,581.5,200.2,581.5,205z M566.6,203.5c0-0.2,0-0.4,0-0.6s0-0.5,0-0.9c0-5.3-1.8-8-5.5-8c-2.2,0-4,0.9-5.3,2.6
	c-1.3,1.7-2.5,4-3.6,6.9H566.6z"/>
</svg>
