<?xml version="1.0" encoding="utf-8"?>
<!-- Generator: Adobe Illustrator 22.0.1, SVG Export Plug-In . SVG Version: 6.00 Build 0)  -->
<svg version="1.1" id="レイヤー_1" xmlns="http://www.w3.org/2000/svg" xmlns:xlink="http://www.w3.org/1999/xlink" x="0px"
	 y="0px" viewBox="0 0 719.7 347.7" style="enable-background:new 0 0 719.7 347.7;" xml:space="preserve">
<style type="text/css">
	.st0{fill:#FAFAFA;}
	.st1{fill:#F47A00;}
</style>
<g>
	<path class="st0" d="M584.7,2.3v72.9c0,8.3-0.3,14.1-0.8,17.4c-0.5,3.3-2.1,6.8-4.8,10.3c-2.7,3.5-6.1,6.2-10.5,8
		s-9.4,2.7-15.3,2.7c-6.5,0-12.3-1.1-17.2-3.2s-8.7-5-11.2-8.4c-2.5-3.5-3.9-7.1-4.4-10.9c-0.4-3.8-0.7-11.9-0.7-24.2V2.3h28.4v81.8
		c0,4.8,0.3,7.8,0.8,9.1c0.5,1.3,1.6,2,3.1,2c1.8,0,3-0.7,3.5-2.2c0.5-1.5,0.8-4.9,0.8-10.3V2.3H584.7z"/>
	<path class="st0" d="M595.7,2.3H643v21.8H624v20.7h17.7v20.8H624v24h20.8v21.8h-49.2V2.3z"/>
	<path class="st0" d="M719.2,49.8h-28.4v-19c0-5.5-0.3-9-0.9-10.3c-0.6-1.4-1.9-2.1-4-2.1c-2.3,0-3.8,0.8-4.4,2.5
		c-0.6,1.7-0.9,5.3-0.9,10.8v50.7c0,5.3,0.3,8.8,0.9,10.4c0.6,1.6,2,2.4,4.2,2.4c2.1,0,3.5-0.8,4.1-2.4c0.7-1.6,1-5.4,1-11.4V67.7
		h28.4v4.3c0,11.3-0.8,19.3-2.4,24c-1.6,4.7-5.1,8.9-10.6,12.4c-5.5,3.6-12.2,5.3-20.2,5.3c-8.3,0-15.2-1.5-20.6-4.5
		s-9-7.2-10.7-12.5s-2.6-13.3-2.6-24V40.8c0-7.9,0.3-13.8,0.8-17.7c0.5-3.9,2.1-7.7,4.8-11.4c2.7-3.6,6.4-6.5,11.1-8.6
		S679.1,0,685.3,0c8.4,0,15.3,1.6,20.7,4.8c5.4,3.2,9,7.3,10.7,12.1c1.7,4.8,2.6,12.3,2.6,22.5V49.8z"/>
	<path class="st1" d="M305,119.3v109.1h-28.4V119.3H305z"/>
	<path class="st1" d="M343.2,139l-0.5,8.2c2-3.3,4.4-5.7,7.2-7.4c2.9-1.6,6.1-2.5,9.9-2.5c4.7,0,8.5,1.1,11.5,3.3
		c3,2.2,4.9,5,5.7,8.3c0.9,3.3,1.3,8.9,1.3,16.7v62.7h-27.2v-61.9c0-6.2-0.2-9.9-0.6-11.3s-1.5-2-3.4-2c-1.9,0-3.1,0.8-3.6,2.3
		c-0.5,1.6-0.7,5.7-0.7,12.4v60.4h-27.2V139H343.2z"/>
	<path class="st1" d="M416.4,127v14.1h7.3v14.2h-7.3v47.8c0,5.9,0.3,9.2,0.9,9.8c0.6,0.7,3.1,1,7.6,1v14.4h-11
		c-6.2,0-10.6-0.3-13.3-0.8c-2.7-0.5-5-1.7-7-3.6s-3.3-4-3.8-6.4c-0.5-2.4-0.7-8.1-0.7-16.9v-45.4h-5.9v-14.2h5.9V127H416.4z"/>
	<path class="st1" d="M491.4,185.3h-35.2v19.3c0,4,0.3,6.6,0.9,7.8c0.6,1.2,1.7,1.8,3.4,1.8c2.1,0,3.4-0.8,4.1-2.3
		c0.7-1.5,1-4.5,1-9v-11.8h25.8v6.6c0,5.5-0.3,9.8-1,12.7c-0.7,3-2.3,6.1-4.9,9.5s-5.8,5.9-9.7,7.6c-3.9,1.7-8.9,2.5-14.8,2.5
		c-5.8,0-10.8-0.8-15.2-2.5c-4.4-1.7-7.8-3.9-10.3-6.8c-2.4-2.9-4.1-6.1-5.1-9.6s-1.4-8.5-1.4-15.2v-26.1c0-7.8,1.1-14,3.2-18.5
		c2.1-4.5,5.6-8,10.4-10.4c4.8-2.4,10.3-3.6,16.6-3.6c7.6,0,13.9,1.4,18.9,4.3c5,2.9,8.4,6.7,10.4,11.5c2,4.8,3,11.5,3,20.2V185.3z
		 M464.1,170.7v-6.5c0-4.6-0.2-7.6-0.7-9c-0.5-1.3-1.5-2-3-2c-1.9,0-3.1,0.6-3.5,1.7c-0.4,1.1-0.7,4.2-0.7,9.3v6.5H464.1z"/>
	<path class="st1" d="M562.2,139v68.9c0,9.3-0.2,15.3-0.6,18c-0.4,2.7-1.9,5.6-4.5,8.6c-2.6,3-6.2,5.3-10.9,6.9
		c-4.7,1.6-10.5,2.4-17.6,2.4c-8.7,0-15.6-1.5-20.9-4.4c-5.3-2.9-8-8.7-8.2-17.4h26.4c0,4,1.4,5.9,4.3,5.9c2.1,0,3.4-0.6,4.1-1.8
		c0.7-1.2,1-3.8,1-7.6v-6.7c-2.3,2.1-4.8,3.7-7.4,4.8c-2.6,1.1-5.3,1.6-8.1,1.6c-4.9,0-8.9-1-12.1-3c-3.2-2-5.3-4.6-6.5-7.8
		c-1.2-3.2-1.8-7.8-1.8-13.7v-32.5c0-8.5,1.5-14.6,4.6-18.3c3.1-3.7,7.7-5.6,13.9-5.6c3.4,0,6.5,0.7,9.3,2.1
		c2.8,1.4,5.3,3.5,7.5,6.3l2-6.8H562.2z M534.9,162.7c0-4.1-0.2-6.7-0.7-7.8c-0.5-1.1-1.5-1.7-3.1-1.7c-1.6,0-2.7,0.6-3.3,1.9
		c-0.7,1.3-1,3.8-1,7.6v30.1c0,4,0.2,6.6,0.7,7.8c0.5,1.2,1.5,1.8,3.1,1.8c1.8,0,3-0.7,3.5-2.2c0.5-1.4,0.8-4.7,0.8-9.8V162.7z"/>
	<path class="st1" d="M599.1,139l-1.1,11.8c4-8.4,9.7-12.9,17.2-13.4v31.5c-5,0-8.6,0.7-11,2c-2.3,1.3-3.8,3.2-4.3,5.6
		s-0.8,7.9-0.8,16.6v35.3h-27.2V139H599.1z"/>
	<path class="st1" d="M645.6,173.6h-25.5v-6c0-6.9,0.8-12.3,2.4-16c1.6-3.8,4.8-7.1,9.6-9.9c4.8-2.9,11.1-4.3,18.7-4.3
		c9.2,0,16.1,1.6,20.8,4.9c4.7,3.3,7.5,7.3,8.4,12s1.4,14.5,1.4,29.3v44.9H655v-8c-1.7,3.2-3.8,5.6-6.4,7.2
		c-2.6,1.6-5.8,2.4-9.4,2.4c-4.8,0-9.1-1.3-13.1-4c-4-2.7-6-8.5-6-17.6v-7.3c0-6.7,1.1-11.3,3.2-13.7c2.1-2.4,7.3-5.3,15.7-8.5
		c8.9-3.5,13.7-5.9,14.4-7.1c0.6-1.2,0.9-3.7,0.9-7.4c0-4.7-0.3-7.7-1-9.1c-0.7-1.4-1.9-2.1-3.5-2.1c-1.8,0-3,0.6-3.4,1.8
		c-0.4,1.2-0.7,4.3-0.7,9.3V173.6z M654.2,185.9c-4.4,3.2-6.9,5.9-7.6,8s-1,5.3-1,9.3c0,4.6,0.3,7.6,0.9,9c0.6,1.3,1.8,2,3.6,2
		c1.7,0,2.8-0.5,3.3-1.6c0.5-1.1,0.8-3.8,0.8-8.3V185.9z"/>
	<path class="st1" d="M718.8,119.3v109.1h-28V119.3H718.8z"/>
	<path class="st0" d="M62.5,269.3H36.1v-8.1c0-3.8-0.3-6.2-1-7.2c-0.7-1-1.8-1.5-3.4-1.5c-1.7,0-3,0.7-3.9,2.1
		c-0.9,1.4-1.3,3.5-1.3,6.3c0,3.6,0.5,6.4,1.5,8.2c0.9,1.8,3.6,4.1,8,6.7c12.6,7.5,20.6,13.6,23.9,18.5c3.3,4.8,4.9,12.6,4.9,23.2
		c0,7.8-0.9,13.5-2.7,17.2c-1.8,3.7-5.3,6.8-10.5,9.3c-5.2,2.5-11.3,3.7-18.2,3.7c-7.6,0-14.1-1.4-19.4-4.3
		c-5.4-2.9-8.9-6.5-10.5-11c-1.7-4.4-2.5-10.8-2.5-18.9v-7.1h26.3v13.3c0,4.1,0.4,6.7,1.1,7.9c0.7,1.2,2.1,1.8,3.9,1.8
		s3.3-0.7,4.2-2.2c0.9-1.5,1.4-3.7,1.4-6.6c0-6.4-0.9-10.6-2.6-12.6c-1.8-2-6.2-5.3-13.3-9.9c-7.1-4.7-11.7-8.1-14-10.2
		c-2.3-2.1-4.2-5-5.7-8.8c-1.5-3.7-2.3-8.5-2.3-14.3c0-8.4,1.1-14.5,3.2-18.3c2.1-3.9,5.6-6.9,10.3-9.1c4.8-2.2,10.5-3.3,17.2-3.3
		c7.4,0,13.6,1.2,18.8,3.6c5.2,2.4,8.6,5.4,10.3,9s2.5,9.8,2.5,18.4V269.3z"/>
	<path class="st0" d="M101.6,244v14.1h7.3v14.2h-7.3v47.8c0,5.9,0.3,9.2,0.9,9.8s3.1,1,7.6,1v14.4h-11c-6.2,0-10.6-0.3-13.3-0.8
		c-2.7-0.5-5-1.7-7-3.6s-3.3-4-3.8-6.4c-0.5-2.4-0.7-8.1-0.7-16.9v-45.4h-5.9v-14.2h5.9V244H101.6z"/>
	<path class="st0" d="M142.2,256l-1.1,11.8c4-8.4,9.7-12.9,17.2-13.4v31.5c-5,0-8.6,0.7-11,2c-2.3,1.3-3.8,3.2-4.3,5.6
		s-0.8,7.9-0.8,16.6v35.3H115V256H142.2z"/>
	<path class="st0" d="M226,302.3h-35.2v19.3c0,4,0.3,6.6,0.9,7.8c0.6,1.2,1.7,1.8,3.4,1.8c2.1,0,3.4-0.8,4.1-2.3c0.7-1.5,1-4.5,1-9
		v-11.8H226v6.6c0,5.5-0.3,9.8-1,12.7c-0.7,3-2.3,6.1-4.9,9.5s-5.8,5.9-9.7,7.6c-3.9,1.7-8.9,2.5-14.8,2.5c-5.8,0-10.8-0.8-15.2-2.5
		c-4.4-1.7-7.8-3.9-10.3-6.8c-2.4-2.9-4.1-6.1-5.1-9.6s-1.4-8.5-1.4-15.2v-26.1c0-7.8,1.1-14,3.2-18.5c2.1-4.5,5.6-8,10.4-10.4
		c4.8-2.4,10.3-3.6,16.6-3.6c7.6,0,13.9,1.4,18.9,4.3c5,2.9,8.4,6.7,10.4,11.5c2,4.8,3,11.5,3,20.2V302.3z M198.7,287.7v-6.5
		c0-4.6-0.2-7.6-0.7-9c-0.5-1.3-1.5-2-3-2c-1.9,0-3.1,0.6-3.5,1.7c-0.4,1.1-0.7,4.2-0.7,9.3v6.5H198.7z"/>
	<path class="st0" d="M296.6,302.3h-35.2v19.3c0,4,0.3,6.6,0.9,7.8c0.6,1.2,1.7,1.8,3.4,1.8c2.1,0,3.4-0.8,4.1-2.3
		c0.7-1.5,1-4.5,1-9v-11.8h25.8v6.6c0,5.5-0.3,9.8-1,12.7c-0.7,3-2.3,6.1-4.9,9.5s-5.8,5.9-9.7,7.6c-3.9,1.7-8.9,2.5-14.8,2.5
		c-5.8,0-10.8-0.8-15.2-2.5c-4.4-1.7-7.8-3.9-10.3-6.8c-2.4-2.9-4.1-6.1-5.1-9.6s-1.4-8.5-1.4-15.2v-26.1c0-7.8,1.1-14,3.2-18.5
		c2.1-4.5,5.6-8,10.4-10.4c4.8-2.4,10.3-3.6,16.6-3.6c7.6,0,13.9,1.4,18.9,4.3c5,2.9,8.4,6.7,10.4,11.5c2,4.8,3,11.5,3,20.2V302.3z
		 M269.3,287.7v-6.5c0-4.6-0.2-7.6-0.7-9c-0.5-1.3-1.5-2-3-2c-1.9,0-3.1,0.6-3.5,1.7c-0.4,1.1-0.7,4.2-0.7,9.3v6.5H269.3z"/>
	<path class="st0" d="M334.2,244v14.1h7.3v14.2h-7.3v47.8c0,5.9,0.3,9.2,0.9,9.8s3.1,1,7.6,1v14.4h-11c-6.2,0-10.6-0.3-13.3-0.8
		c-2.7-0.5-5-1.7-7-3.6s-3.3-4-3.8-6.4c-0.5-2.4-0.7-8.1-0.7-16.9v-45.4H301v-14.2h5.9V244H334.2z"/>
	<path class="st0" d="M372.6,236.3h21.2c13.7,0,23,0.6,27.8,1.9c4.8,1.3,8.5,3.3,11,6.2c2.5,2.9,4.1,6.1,4.7,9.6
		c0.6,3.5,0.9,10.5,0.9,20.8V313c0,9.8-0.5,16.3-1.4,19.6c-0.9,3.3-2.5,5.9-4.8,7.8s-5.1,3.2-8.5,3.9c-3.4,0.7-8.4,1.1-15.2,1.1
		h-35.8V236.3z M401,255v71.8c4.1,0,6.6-0.8,7.5-2.5c0.9-1.6,1.4-6.1,1.4-13.4v-42.4c0-4.9-0.2-8.1-0.5-9.5c-0.3-1.4-1-2.4-2.2-3.1
		C406.2,255.3,404.1,255,401,255z"/>
	<path class="st0" d="M472.4,290.6h-25.5v-6c0-6.9,0.8-12.3,2.4-16c1.6-3.8,4.8-7.1,9.6-9.9c4.8-2.9,11.1-4.3,18.7-4.3
		c9.2,0,16.1,1.6,20.8,4.9c4.7,3.3,7.5,7.3,8.4,12s1.4,14.5,1.4,29.3v44.9h-26.5v-8c-1.7,3.2-3.8,5.6-6.4,7.2
		c-2.6,1.6-5.8,2.4-9.4,2.4c-4.8,0-9.1-1.3-13.1-4c-4-2.7-6-8.5-6-17.6v-7.3c0-6.7,1.1-11.3,3.2-13.7c2.1-2.4,7.3-5.3,15.7-8.5
		c8.9-3.5,13.7-5.9,14.4-7.1c0.6-1.2,0.9-3.7,0.9-7.4c0-4.7-0.3-7.7-1-9.1c-0.7-1.4-1.9-2.1-3.5-2.1c-1.8,0-3,0.6-3.4,1.8
		c-0.4,1.2-0.7,4.3-0.7,9.3V290.6z M481,302.9c-4.4,3.2-6.9,5.9-7.6,8s-1,5.3-1,9.3c0,4.6,0.3,7.6,0.9,9c0.6,1.3,1.8,2,3.6,2
		c1.7,0,2.8-0.5,3.3-1.6c0.5-1.1,0.8-3.8,0.8-8.3V302.9z"/>
	<path class="st0" d="M545.3,256l-0.5,8.2c2-3.3,4.4-5.7,7.2-7.4c2.9-1.6,6.1-2.5,9.9-2.5c4.7,0,8.5,1.1,11.5,3.3
		c3,2.2,4.9,5,5.7,8.3c0.9,3.3,1.3,8.9,1.3,16.7v62.7h-27.2v-61.9c0-6.2-0.2-9.9-0.6-11.3s-1.5-2-3.4-2c-1.9,0-3.1,0.8-3.6,2.3
		c-0.5,1.6-0.7,5.7-0.7,12.4v60.4h-27.2V256H545.3z"/>
	<path class="st0" d="M650,289.7h-25.7v-10.3c0-3.6-0.3-6-0.9-7.3c-0.6-1.3-1.7-1.9-3.2-1.9c-1.6,0-2.6,0.6-3.2,1.7
		c-0.5,1.1-0.8,3.6-0.8,7.5v42.2c0,3.2,0.4,5.6,1.2,7.2s2,2.4,3.6,2.4c1.8,0,3.1-0.8,3.7-2.5c0.7-1.7,1-4.8,1-9.4v-10.6H650
		c0,7.1-0.3,12.5-0.8,16.1c-0.5,3.6-2,7.2-4.5,11s-5.9,6.6-9.9,8.5c-4.1,1.9-9.1,2.9-15.2,2.9c-7.7,0-13.8-1.3-18.3-3.9
		c-4.5-2.6-7.7-6.3-9.5-11.1c-1.9-4.7-2.8-11.5-2.8-20.2v-25.4c0-7.6,0.8-13.3,2.3-17.2c1.5-3.9,4.8-7.3,9.8-10.3
		c5-3,11.1-4.5,18.2-4.5c7.1,0,13.2,1.5,18.2,4.5c5,3,8.4,6.8,10,11.4C649.1,274.8,650,281.3,650,289.7z"/>
	<path class="st0" d="M719.7,302.3h-35.2v19.3c0,4,0.3,6.6,0.9,7.8c0.6,1.2,1.7,1.8,3.4,1.8c2.1,0,3.4-0.8,4.1-2.3
		c0.7-1.5,1-4.5,1-9v-11.8h25.8v6.6c0,5.5-0.3,9.8-1,12.7c-0.7,3-2.3,6.1-4.9,9.5s-5.8,5.9-9.7,7.6c-3.9,1.7-8.9,2.5-14.8,2.5
		c-5.8,0-10.8-0.8-15.2-2.5c-4.4-1.7-7.8-3.9-10.3-6.8c-2.4-2.9-4.1-6.1-5.1-9.6s-1.4-8.5-1.4-15.2v-26.1c0-7.8,1.1-14,3.2-18.5
		c2.1-4.5,5.6-8,10.4-10.4c4.8-2.4,10.3-3.6,16.6-3.6c7.6,0,13.9,1.4,18.9,4.3c5,2.9,8.4,6.7,10.4,11.5c2,4.8,3,11.5,3,20.2V302.3z
		 M692.4,287.7v-6.5c0-4.6-0.2-7.6-0.7-9c-0.5-1.3-1.5-2-3-2c-1.9,0-3.1,0.6-3.5,1.7c-0.4,1.1-0.7,4.2-0.7,9.3v6.5H692.4z"/>
</g>
</svg>
